<?xml version="1.0" encoding="UTF-8" standalone="no"?><!DOCTYPE svg PUBLIC "-//W3C//DTD SVG 1.1//EN" "http://www.w3.org/Graphics/SVG/1.1/DTD/svg11.dtd"><svg width="100%" height="100%" viewBox="0 0 1888 984" version="1.1" xmlns="http://www.w3.org/2000/svg" xmlns:xlink="http://www.w3.org/1999/xlink" xml:space="preserve" xmlns:serif="http://www.serif.com/" style="fill-rule:evenodd;clip-rule:evenodd;stroke-linecap:square;stroke-linejoin:round;stroke-miterlimit:1.5;"><rect id="Artboard2" x="-234.355" y="-635.36" width="2250" height="2250" style="fill:none;"/><g><clipPath id="_clip1"><rect x="449.607" y="-0.47" width="888.082" height="288.621"/></clipPath><g clip-path="url(#_clip1)"><path d="M471.823,355.272c-0.295,-78.523 -0.785,-150.086 -0.785,-150.086c0,-0 2.707,-48.698 73.428,-49.137l704.652,1.53c0,0 61.862,4.015 63.655,50.179c-0.36,18.537 0.416,84.247 0.46,146.925" style="fill:none;stroke:#ed6d91;stroke-width:36.89px;"/><path d="M747.52,156.301l0.759,-84.044c-0,0 2.083,-58.578 51.093,-58.129l169.066,-0c-0,-0 44.071,3.592 44.451,52.08c-0.38,51.183 0.759,90.693 0.759,90.693l-266.128,-0.6Z" style="fill:none;stroke:#ed6d91;stroke-width:28.25px;stroke-linecap:round;"/><path d="M800.159,156.515l0.459,-54.102c-0,0 1.259,-37.708 30.881,-37.419l102.184,-0c0,-0 26.637,2.312 26.867,33.525c-0.23,32.948 0.459,58.382 0.459,58.382l-160.85,-0.386Z" style="fill:none;stroke:#ed6d91;stroke-width:28.25px;stroke-linecap:round;"/><path d="M750.186,354.316l-0,-194.199l-49.267,0.397l1.616,193.802" style="fill:none;stroke:#ed6d91;stroke-width:16.78px;"/><path d="M1057.99,356.386l-0,-194.199l-45.342,0.397l1.487,193.802" style="fill:none;stroke:#ed6d91;stroke-width:16.67px;"/></g></g><g><path d="M575.637,676.707l60.596,0l122.611,-336.116l-65.329,0l-74.324,219.186c-6.628,19.409 -12.309,49.233 -12.782,49.233l-0.947,0c-0.474,0 -6.154,-29.824 -12.782,-49.233l-73.851,-219.186l-65.803,0l122.611,336.116Z" style="fill:#ed6d91;fill-rule:nonzero;"/><path d="M0,676.707l206.404,0l-0,-52.548l-145.335,0l-0,-283.568l-61.069,0l0,336.116Z" style="fill:#27337a;fill-rule:nonzero;"/><path d="M780.455,538.412l14.551,46.455m12.903,-49.707l-6.134,26.198" style="fill:#ed6d91;fill-rule:nonzero;"/><g><path d="M820.048,450.894l-72.904,225.813l-62.963,0l118.351,-336.116l63.909,0l118.351,336.116l-62.963,0l-28.404,-86.159l-98.066,-0l14.269,-49.708l68.648,0l-29.824,-89.946c-6.155,-18.936 -13.256,-52.074 -13.256,-52.074l-0.946,-0c-0,-0 -7.575,33.138 -14.202,52.074Z" style="fill:#ed6d91;"/></g><g><path d="M406.933,540.84l14.269,49.708l-98.066,-0l-28.404,86.159l-62.963,0l118.351,-336.116l63.909,0l118.351,336.116l-62.963,0l-72.904,-225.813c-6.627,-18.936 -14.202,-52.074 -14.202,-52.074l-0.947,-0c0,-0 -7.101,33.138 -13.255,52.074l-29.824,89.946l68.648,0Z" style="fill:#27337a;"/></g><path d="M1005.16,676.707l206.403,0l0,-52.548l-145.334,0l-0,-283.568l-61.069,0l-0,336.116Z" style="fill:#ed6d91;fill-rule:nonzero;"/><g><rect x="1270.3" y="340.591" width="61.069" height="336.116" style="fill:#ed6d91;fill-rule:nonzero;"/><path d="M1391.01,636.468c-0,-0 41.186,45.92 115.983,45.92c70.064,-0 110.777,-44.973 110.777,-98.468c-0,-107.462 -158.117,-92.787 -158.117,-152.436c0,-23.67 22.25,-40.239 50.654,-40.239c42.133,0 74.324,29.351 74.324,29.351l26.511,-49.707c0,-0 -34.085,-35.979 -100.361,-35.979c-64.383,0 -112.67,41.66 -112.67,97.521c-0,103.202 158.59,92.787 158.59,152.909c-0,27.458 -23.197,40.713 -48.761,40.713c-47.34,-0 -83.792,-35.505 -83.792,-35.505l-33.138,45.92Z" style="fill:#ed6d91;fill-rule:nonzero;"/><path d="M1678.84,676.707l208.77,0l0,-52.548l-147.701,0l-0,-90.42l113.143,0l-0,-52.547l-113.143,-0l-0,-88.053l140.127,-0l-0,-52.548l-201.196,0l-0,336.116Z" style="fill:#ed6d91;fill-rule:nonzero;"/></g></g><g><path d="M206.247,785.968l37.493,0l45.599,-45.937l-46.613,-0l-36.479,45.937Zm-62.827,107.413c0,48.64 35.467,90.186 92.551,90.186c21.618,-0 38.844,-5.742 51.004,-12.16c7.093,-3.716 13.511,-7.431 18.578,-11.822l-16.551,-30.4c-4.391,3.378 -9.12,6.418 -14.525,9.12c-9.12,5.067 -20.942,9.12 -35.466,9.12c-26.009,-0 -48.978,-16.551 -51.68,-47.964l119.235,-0l0.676,-5.405c0.337,-3.04 0.337,-6.755 0.337,-9.12c0,-45.599 -27.022,-81.741 -76.675,-81.741c-51.679,-0 -87.484,37.155 -87.484,90.186Zm44.925,-19.253c4.053,-22.969 19.591,-37.831 41.546,-37.831c18.578,-0 32.426,13.849 33.44,37.831l-74.986,-0Z" style="fill:#27337a;fill-rule:nonzero;"/><path d="M353.179,916.35c0,57.759 47.626,64.852 71.946,64.852c4.054,0 7.093,0 9.458,-0.337l3.715,-0.676l0,-35.128l-2.026,-0c-1.351,-0 -3.378,0.337 -5.742,0.337c-12.16,0 -34.453,-3.715 -34.453,-33.439l-0,-72.622l39.181,-0l0,-32.089l-39.181,0l-0,-46.951l-41.547,0l0,46.951l-27.697,0l-0,32.089l26.346,-0l0,77.013Z" style="fill:#27337a;fill-rule:nonzero;"/><path d="M482.885,918.038c-0,46.951 22.293,65.529 56.408,65.529c42.898,-0 60.8,-32.089 62.827,-37.831l0.675,0l0,2.365c0,1.351 -0.338,3.377 -0.338,5.742l0,6.417c0,12.16 7.094,19.254 22.293,19.254l42.56,-0l0,-31.751l-16.551,-0c-5.066,-0 -7.431,-2.365 -7.431,-7.431l0,-133.084l-69.244,0l0,32.089l26.347,-0l-0,44.586c-0,31.076 -17.902,61.475 -47.627,61.475c-21.617,0 -27.022,-14.186 -27.022,-34.791l0,-103.359l-69.581,0l-0,32.089l26.684,-0l-0,78.701Z" style="fill:#27337a;fill-rule:nonzero;"/><path d="M689.603,893.381c0,53.031 29.387,90.186 75.324,90.186c21.618,-0 35.129,-8.107 44.249,-16.213c5.067,-4.729 9.12,-10.134 12.16,-15.876l0.675,0c0,0.338 0,1.014 -0.337,2.027c-0.338,1.689 -0.676,3.715 -0.676,5.742l0,2.027c0,9.795 6.08,18.24 21.955,18.24l40.534,-0l-0,-32.089l-15.538,-0c-5.067,-0 -7.431,-2.364 -7.431,-7.431l-0,-200.301l-69.244,0l-0,32.089l26.684,-0l0,43.573c0,3.715 0,6.417 0.338,8.782c0.338,1.013 0.338,2.364 0.338,3.378l-0.676,-0c-3.04,-4.391 -6.755,-8.445 -11.147,-12.16c-7.768,-6.418 -19.591,-12.16 -38.506,-12.16c-46.613,-0 -78.702,35.466 -78.702,90.186Zm43.236,-0c-0,-34.115 19.591,-53.369 43.91,-53.369c28.374,0 42.222,26.347 42.222,54.382c0,36.818 -20.604,53.031 -43.573,53.031c-25.333,-0 -42.559,-21.28 -42.559,-54.044Z" style="fill:#27337a;fill-rule:nonzero;"/><path d="M934.153,777.862l43.235,-0l0,-38.169l-43.235,0l-0,38.169Zm-24.658,201.652l92.551,-0l-0,-32.089l-24.658,-0l0,-140.177l-69.582,0l0,32.089l26.685,-0l-0,108.088l-24.996,-0l0,32.089Z" style="fill:#27337a;fill-rule:nonzero;"/><path d="M1021.64,931.212c-0,35.128 27.359,52.355 57.084,52.355c20.266,-0 33.102,-8.107 42.222,-16.551c5.066,-5.067 9.12,-10.471 12.16,-16.551l0.675,-0c0,0.675 0,1.351 -0.338,2.364c-0.337,1.689 -0.675,3.716 -0.675,6.418l-0,2.027c-0,9.795 6.08,18.24 21.955,18.24l40.533,-0l0,-32.089l-15.537,-0c-5.067,-0 -7.431,-2.364 -7.431,-7.431l-0,-68.906c-0,-44.249 -24.658,-67.893 -70.933,-67.893c-20.605,-0 -37.831,5.066 -49.653,10.471c-7.094,3.04 -13.174,6.755 -18.578,10.809l15.875,29.724c4.392,-3.04 9.458,-6.08 14.863,-8.444c9.12,-4.054 20.604,-8.107 33.777,-8.107c17.902,-0 31.751,7.769 31.751,29.724l0,5.742l-10.809,0c-27.697,0 -96.941,5.405 -96.941,58.098Zm43.235,-3.378c-0,-26.009 40.533,-28.711 57.76,-28.711l7.093,0l-0,5.742c-0,21.618 -16.551,46.613 -39.858,46.613c-15.875,0 -24.995,-10.471 -24.995,-23.644Z" style="fill:#27337a;fill-rule:nonzero;"/><path d="M1218.56,979.514l92.55,-0l0,-32.089l-24.657,-0l-0,-45.262c-0,-30.062 18.24,-59.786 49.315,-59.786c21.617,-0 27.36,13.849 27.36,35.128l-0,102.009l67.555,-0l-0,-32.089l-24.996,-0l0,-78.702c0,-45.937 -20.942,-65.528 -57.759,-65.528c-42.898,-0 -61.813,33.102 -63.502,38.506l-0.676,0c0,-0.675 0,-1.351 0.338,-2.364c0.338,-1.351 0.338,-3.378 0.338,-5.067l-0,-7.769c-0,-12.16 -7.093,-19.253 -22.293,-19.253l-45.262,0l-0,32.089l19.253,-0c5.067,-0 7.431,2.364 7.431,7.431l0,100.657l-24.995,-0l-0,32.089Z" style="fill:#27337a;fill-rule:nonzero;"/><path d="M1471.55,916.35c-0,57.759 47.626,64.852 71.946,64.852c4.053,0 7.093,0 9.457,-0.337l3.716,-0.676l-0,-35.128l-2.027,-0c-1.351,-0 -3.377,0.337 -5.742,0.337c-12.16,0 -34.453,-3.715 -34.453,-33.439l0,-72.622l39.182,-0l0,-32.089l-39.182,0l0,-46.951l-41.546,0l-0,46.951l-27.698,0l0,32.089l26.347,-0l-0,77.013Z" style="fill:#27337a;fill-rule:nonzero;"/><path d="M1578.97,893.381c0,48.64 35.467,90.186 92.551,90.186c21.617,-0 38.844,-5.742 51.004,-12.16c7.093,-3.716 13.511,-7.431 18.577,-11.822l-16.551,-30.4c-4.391,3.378 -9.12,6.418 -14.524,9.12c-9.12,5.067 -20.942,9.12 -35.466,9.12c-26.009,-0 -48.978,-16.551 -51.68,-47.964l119.235,-0l0.675,-5.405c0.338,-3.04 0.338,-6.755 0.338,-9.12c0,-45.599 -27.022,-81.741 -76.675,-81.741c-51.68,-0 -87.484,37.155 -87.484,90.186Zm44.924,-19.253c4.054,-22.969 19.591,-37.831 41.547,-37.831c18.577,-0 32.426,13.849 33.439,37.831l-74.986,-0Z" style="fill:#27337a;fill-rule:nonzero;"/></g></svg>