<?xml version="1.0" encoding="UTF-8" ?>
<!DOCTYPE svg PUBLIC "-//W3C//DTD SVG 1.1//EN" "http://www.w3.org/Graphics/SVG/1.1/DTD/svg11.dtd">
<svg width="1063pt" height="797pt" viewBox="0 0 1063 797" version="1.1" xmlns="http://www.w3.org/2000/svg">
<g id="#27337aff">
<path fill="#27337a" opacity="1.00" d=" M 88.00 88.00 C 383.33 88.00 678.67 88.00 974.00 88.00 C 974.00 294.67 974.00 501.33 974.00 708.00 C 678.67 708.00 383.33 708.00 88.00 708.00 C 88.00 501.33 88.00 294.67 88.00 88.00 M 117.57 117.57 C 117.56 304.50 117.56 491.44 117.57 678.37 C 393.19 678.38 668.81 678.38 944.43 678.37 C 944.44 491.44 944.44 304.50 944.43 117.57 C 668.81 117.56 393.19 117.56 117.57 117.57 Z" />
<path fill="#27337a" opacity="1.00" d=" M 206.12 206.07 C 215.98 206.06 225.84 206.05 235.69 206.07 C 235.66 265.12 235.74 324.17 235.66 383.21 C 225.82 383.24 215.99 383.26 206.15 383.20 C 206.08 324.15 206.14 265.11 206.12 206.07 Z" />
<path fill="#27337a" opacity="1.00" d=" M 427.58 206.07 C 437.45 206.05 447.32 206.07 457.19 206.06 C 474.59 246.58 491.94 287.13 509.33 327.66 C 516.64 344.43 523.54 361.39 531.11 378.04 C 555.62 320.68 580.24 263.38 604.82 206.06 C 614.68 206.07 624.55 206.05 634.41 206.07 C 604.89 274.99 575.33 343.90 545.78 412.82 C 535.93 412.81 526.07 412.81 516.22 412.81 C 486.67 343.90 457.12 274.99 427.58 206.07 Z" />
<path fill="#27337a" opacity="1.00" d=" M 826.31 206.07 C 836.16 206.05 846.02 206.06 855.88 206.07 C 855.88 265.07 855.88 324.07 855.87 383.07 C 846.02 383.02 836.16 383.09 826.31 383.03 C 826.31 324.04 826.32 265.06 826.31 206.07 Z" />
<path fill="#27337a" opacity="1.00" d=" M 353.74 250.39 C 363.62 250.36 373.51 250.37 383.39 250.39 C 412.91 319.28 442.46 388.16 471.98 457.05 C 462.09 457.04 452.20 457.11 442.32 457.02 C 417.73 399.67 393.25 342.27 368.51 284.99 C 354.52 317.75 340.47 350.49 326.42 383.22 C 316.61 383.24 306.80 383.26 297.00 383.20 C 301.65 371.34 307.00 359.75 311.91 347.98 C 325.85 315.45 339.82 282.93 353.74 250.39 Z" />
<path fill="#27337a" opacity="1.00" d=" M 678.61 250.38 C 688.49 250.37 698.38 250.35 708.26 250.39 C 727.19 294.62 746.18 338.81 765.11 383.04 C 755.19 382.98 745.27 383.22 735.36 382.92 C 721.57 350.23 707.37 317.71 693.53 285.04 C 668.71 342.26 644.28 399.65 619.72 456.99 C 609.82 457.15 599.92 457.03 590.02 457.05 C 619.55 388.16 649.09 319.28 678.61 250.38 Z" />
<path fill="#27337a" opacity="1.00" d=" M 284.29 412.78 C 294.07 412.77 303.84 412.74 313.61 412.79 C 307.56 427.64 301.02 442.29 294.77 457.05 C 284.90 457.07 275.03 457.07 265.15 457.05 C 271.57 442.31 277.66 427.42 284.29 412.78 Z" />
<path fill="#27337a" opacity="1.00" d=" M 748.39 412.79 C 758.16 412.74 767.93 412.77 777.71 412.78 C 784.36 427.41 790.43 442.31 796.85 457.05 C 786.97 457.07 777.10 457.06 767.23 457.05 C 760.98 442.29 754.44 427.64 748.39 412.79 Z" />
</g>
<g id="#ed6d91ff">
<path fill="#ed6d91" opacity="1.00" d=" M 206.15 383.20 C 215.99 383.26 225.82 383.24 235.66 383.21 C 256.10 383.16 276.55 383.18 297.00 383.20 C 306.80 383.26 316.61 383.24 326.42 383.22 C 340.48 383.15 354.56 383.20 368.63 383.19 C 368.62 393.06 368.62 402.93 368.63 412.81 C 350.29 412.81 331.95 412.84 313.61 412.79 C 303.84 412.74 294.07 412.77 284.29 412.78 C 258.24 412.86 232.18 412.79 206.13 412.81 C 206.14 402.94 206.09 393.07 206.15 383.20 Z" />
<path fill="#ed6d91" opacity="1.00" d=" M 693.37 383.19 C 747.55 383.19 801.72 383.17 855.89 383.21 C 855.85 393.07 855.89 402.94 855.87 412.81 C 829.82 412.79 803.76 412.86 777.71 412.78 C 767.93 412.77 758.16 412.74 748.39 412.79 C 730.05 412.84 711.71 412.81 693.37 412.81 C 693.37 402.94 693.38 393.06 693.37 383.19 Z" />
<path fill="#ed6d91" opacity="1.00" d=" M 643.37 457.01 C 649.91 456.99 656.45 457.00 663.00 457.00 C 663.00 486.34 663.01 515.69 662.99 545.03 C 663.08 549.59 662.76 555.18 666.70 558.36 C 670.77 561.33 676.13 560.11 680.82 560.10 C 680.81 564.97 680.82 569.83 680.81 574.70 C 671.96 575.26 662.39 576.12 654.30 571.74 C 649.05 568.99 645.68 563.62 644.42 557.95 C 643.15 552.73 643.39 547.32 643.37 541.99 C 643.37 513.67 643.38 485.34 643.37 457.01 Z" />
<path fill="#ed6d91" opacity="1.00" d=" M 279.85 491.48 C 294.03 482.47 311.48 479.11 328.08 481.17 C 336.77 482.28 345.69 485.63 351.36 492.61 C 356.76 499.06 358.55 507.71 358.60 515.93 C 358.67 529.29 358.59 542.65 358.63 556.01 C 358.36 558.06 359.78 560.23 361.99 560.25 C 366.42 560.55 370.87 560.28 375.32 560.39 C 375.31 565.32 375.32 570.25 375.31 575.18 C 367.55 575.16 359.80 575.24 352.04 575.15 C 348.16 575.06 343.67 574.07 341.49 570.52 C 339.38 566.75 340.25 562.24 340.47 558.14 C 334.99 568.31 324.44 575.47 312.99 576.94 C 302.42 578.29 290.95 576.35 282.38 569.72 C 272.43 562.24 269.84 546.98 276.37 536.49 C 280.76 529.60 288.35 525.57 295.92 523.11 C 309.78 518.64 324.51 518.22 338.95 518.37 C 339.03 513.15 338.87 507.54 335.85 503.06 C 332.67 498.14 326.75 495.93 321.14 495.43 C 309.43 494.37 297.71 498.12 287.78 504.17 C 285.12 499.95 282.46 495.73 279.85 491.48 M 304.86 533.89 C 299.98 535.69 294.95 538.83 293.29 544.05 C 291.19 550.61 294.74 558.10 300.78 561.18 C 309.80 565.86 321.41 563.48 328.77 556.76 C 336.24 550.07 339.87 539.79 339.13 529.87 C 327.63 529.92 315.80 529.91 304.86 533.89 Z" />
<path fill="#ed6d91" opacity="1.00" d=" M 399.91 493.00 C 409.84 483.32 424.34 479.48 437.93 480.79 C 448.70 481.57 459.79 486.28 465.84 495.58 C 465.74 490.97 469.42 487.09 473.99 486.82 C 483.13 486.24 492.32 486.72 501.49 486.56 C 501.50 491.50 501.50 496.44 501.49 501.38 C 496.78 501.44 492.06 501.24 487.36 501.45 C 485.49 501.47 483.61 502.98 483.80 504.97 C 483.67 527.65 483.83 550.34 483.72 573.02 C 483.54 582.40 480.25 591.89 473.67 598.71 C 465.98 606.82 455.03 610.99 444.16 612.60 C 428.26 615.06 411.84 612.26 397.15 605.90 C 399.23 601.32 401.46 596.81 403.63 592.27 C 416.27 597.72 430.64 600.26 444.21 597.04 C 451.57 595.30 458.75 590.83 461.83 583.66 C 465.19 576.36 463.59 568.14 464.29 560.40 C 459.59 567.33 452.24 572.38 444.02 574.07 C 429.91 577.01 414.29 574.09 402.94 564.96 C 381.31 548.00 380.23 511.85 399.91 493.00 M 428.48 496.74 C 421.32 498.27 414.75 502.68 410.95 508.98 C 403.03 522.18 404.43 541.24 415.99 551.93 C 426.31 561.20 443.77 562.88 454.67 553.69 C 461.97 547.43 464.52 537.35 464.47 528.07 C 464.50 519.19 462.29 509.62 455.67 503.29 C 448.57 496.49 437.85 494.77 428.48 496.74 Z" />
<path fill="#ed6d91" opacity="1.00" d=" M 529.32 492.33 C 539.58 482.79 554.31 479.30 567.99 480.93 C 578.31 481.93 588.73 486.71 594.56 495.58 C 594.80 493.26 595.29 490.76 597.16 489.17 C 600.11 486.55 604.30 486.56 608.03 486.55 C 615.41 486.57 622.80 486.55 630.18 486.57 C 630.19 491.50 630.19 496.43 630.18 501.37 C 625.50 501.44 620.81 501.26 616.14 501.44 C 614.16 501.42 612.29 503.04 612.47 505.10 C 612.37 527.73 612.50 550.36 612.41 572.99 C 612.24 582.04 609.20 591.21 603.05 597.97 C 596.09 605.74 586.08 610.12 575.99 612.06 C 559.15 615.37 541.44 612.75 525.83 605.83 C 527.98 601.30 530.15 596.78 532.33 592.27 C 544.76 597.63 558.85 600.16 572.22 597.21 C 579.59 595.57 586.89 591.36 590.22 584.32 C 593.93 576.88 592.39 568.37 592.99 560.39 C 588.36 567.24 581.14 572.25 573.03 574.00 C 557.36 577.42 539.68 573.41 528.18 561.89 C 509.61 543.66 510.13 509.93 529.32 492.33 M 557.49 496.67 C 550.02 498.17 543.19 502.81 539.36 509.44 C 531.73 522.71 533.28 541.63 544.92 552.14 C 555.32 561.27 572.74 562.83 583.53 553.55 C 590.73 547.25 593.23 537.24 593.17 528.01 C 593.19 519.21 591.01 509.74 584.50 503.42 C 577.48 496.59 566.83 494.80 557.49 496.67 Z" />
<path fill="#ed6d91" opacity="1.00" d=" M 735.12 481.15 C 749.92 478.94 765.79 482.85 777.20 492.71 C 786.94 500.93 792.92 513.30 793.48 526.02 C 794.39 540.17 788.82 554.68 778.23 564.19 C 760.50 580.63 731.06 581.73 711.88 567.17 C 701.40 559.41 694.49 547.10 693.26 534.13 C 691.76 520.85 695.88 506.94 704.92 497.02 C 712.67 488.34 723.65 482.81 735.12 481.15 M 736.52 496.71 C 731.43 497.84 726.64 500.29 722.77 503.79 C 709.70 515.54 708.76 537.60 719.86 550.98 C 729.04 562.54 746.99 565.40 759.34 557.33 C 774.92 547.80 778.78 524.94 768.95 509.99 C 762.33 499.32 748.71 493.82 736.52 496.71 Z" />
</g>
</svg>
