<?xml version="1.0" encoding="UTF-8" standalone="no"?><!DOCTYPE svg PUBLIC "-//W3C//DTD SVG 1.1//EN" "http://www.w3.org/Graphics/SVG/1.1/DTD/svg11.dtd"><svg width="100%" height="100%" viewBox="0 0 1321 1923" version="1.1" xmlns="http://www.w3.org/2000/svg" xmlns:xlink="http://www.w3.org/1999/xlink" xml:space="preserve" xmlns:serif="http://www.serif.com/" style="fill-rule:evenodd;clip-rule:evenodd;stroke-linecap:round;stroke-linejoin:round;stroke-miterlimit:1.5;"><rect id="Artboard1" x="-476.523" y="-167.705" width="2250" height="2250" style="fill:none;"/><g id="Artboard11" serif:id="Artboard1"><path d="M933.289,205.708l138.421,0c79.738,0 144.476,64.738 144.476,144.476l0,654.231c0,79.738 -64.738,144.476 -144.476,144.476l-138.421,-0c2.46,-170.973 0.816,-740.975 -0,-943.183Z" style="fill:url(#_Linear1);stroke:#000;stroke-width:25px;"/><path d="M943.17,201.65l53.654,-0c80.448,-0 145.761,65.313 145.761,145.76l-0,660.049c-0,80.448 -65.313,145.761 -145.761,145.761l-53.654,-0" style="fill:url(#_Linear2);stroke:#000;stroke-width:16.67px;"/><path d="M124.874,637.874c0,0 -154.383,83.047 -107.771,364.683c14.728,-23.029 41.001,-79.041 107.98,-86.78c1.681,-30.956 -0.209,-277.903 -0.209,-277.903Z" style="fill:#28337a;stroke:#000;stroke-width:16.67px;"/><path d="M1284.84,1011.5c0,0 -51.426,-40.888 -141.273,-11.489c-14.849,6.725 -45.06,25.523 -5.002,43.187c-17.348,9.147 -103.468,73.466 -117.76,167.317c-3.943,21.403 15.49,89.546 83.959,17.262c4.727,-19.057 10.97,-57.498 11.955,-81.155c-2.957,50.927 -6.542,119.463 -46.779,183.135c-9.755,14.474 -4.896,104.315 88.665,18.752c8.534,-16.578 24.822,-47.662 36.197,-79.982c-4.134,13.136 -28.152,65.543 -36.197,79.982c22.438,-0.535 52.385,-11.23 53.454,-12.3c8.556,-16.043 39.486,-61.498 36.054,-61.498c-3.433,-0 -36.054,61.498 -36.054,61.498c0,0 168.492,-1.967 69.121,-276.884c7.583,-11.81 34.971,-23.486 3.66,-47.825Z" style="fill:#fff;stroke:#000;stroke-width:16.67px;"/><path d="M1143.31,998.476c0,-0 81.131,-26.898 141.534,13.028c0,-36.467 -9.262,-282.56 -136.583,-409.881c-14.065,-12.505 -48.267,3.666 -42.934,38.493c5.922,33.31 59.635,233.906 37.983,358.36Z" style="fill:#28337a;stroke:#000;stroke-width:16.67px;"/><path d="M17.103,1002.56c-0,0 33.298,-78.708 107.98,-86.78c-1.127,39.164 -3.723,86.78 -3.723,86.78c-0,0 46.346,144.867 175.572,146.474c5.131,6.272 11.513,28.509 -17.598,38.212c-30.604,8.211 -76.136,21.274 -127.639,-30.23c12.689,11.57 60.264,58.968 127.639,30.23c-6.522,16.049 -29.661,36.575 -54.294,39.561c-19.407,0 -56.127,7.838 -115.022,-48.891c10.896,9.33 50.456,55.236 115.022,48.891c-7.091,8.584 -173.456,89.579 -207.937,-224.247Z" style="fill:#fff;stroke:#000;stroke-width:16.67px;"/><path d="M422.806,138.238c1.61,-91.439 34.994,-127.872 113.167,-128.811c96.978,-1.923 172.006,-0.908 259.587,0c57.317,1.539 96.073,42.821 95.543,125.523c-35.807,-0.658 -64.363,-0.054 -84.731,-0c-0.03,-23.313 -10.39,-36.549 -36.44,-36.334c-31.584,0.215 -193.467,-0.225 -232.143,0c-16.906,0.979 -26.748,16.547 -26.563,39.307c-21.024,0.23 -88.414,0 -88.414,0" style="fill:#28337a;stroke:#000;stroke-width:16.67px;"/><path d="M891.103,134.985l-0,71.319l-83.053,-0l-1.678,-71.319" style="fill:#fff;stroke:#000;stroke-width:16.67px;"/><path d="M511.226,138.238l-0,71.696l-86.669,-0l-1.751,-71.696" style="fill:#fff;stroke:#000;stroke-width:16.67px;"/><path d="M265.836,205.844l667.78,0c79.739,0 144.477,64.738 144.477,144.477l-0,654.233c-0,79.739 -64.738,144.477 -144.477,144.477l-667.78,-0c-79.739,-0 -144.476,-64.738 -144.476,-144.477l-0,-654.233c-0,-79.739 64.737,-144.477 144.476,-144.477Z" style="fill:url(#_Linear3);stroke:#000;stroke-width:25px;"/><g><path d="M1078.09,350.321c-165.931,10.532 -144.477,-144.477 -144.477,-144.477c79.739,0 142.385,57.133 144.477,144.477Z" style="fill:#28337a;stroke:#000;stroke-width:12.5px;stroke-dasharray:12.5,25,6.25,0,0,0;"/><path d="M1078.09,1004.55c-165.931,-10.532 -144.477,144.477 -144.477,144.477c79.739,-0 142.385,-57.133 144.477,-144.477Z" style="fill:#28337a;stroke:#000;stroke-width:12.5px;stroke-dasharray:12.5,25,6.25,0,0,0;"/><path d="M121.36,1004.55c165.93,-10.532 144.476,144.477 144.476,144.477c-79.739,-0 -142.385,-57.133 -144.476,-144.477Z" style="fill:#28337a;stroke:#000;stroke-width:12.5px;stroke-dasharray:12.5,25,6.25,0,0,0;"/><path d="M121.36,350.321c165.93,10.532 144.476,-144.477 144.476,-144.477c-79.739,0 -142.385,57.133 -144.476,144.477Z" style="fill:#28337a;stroke:#000;stroke-width:12.5px;stroke-dasharray:12.5,25,6.25,0,0,0;"/><path d="M265.836,205.844l667.78,0c79.739,0 144.477,64.738 144.477,144.477l-0,654.233c-0,79.739 -64.738,144.477 -144.477,144.477l-667.78,-0c-79.739,-0 -144.476,-64.738 -144.476,-144.477l-0,-654.233c-0,-79.739 64.737,-144.477 144.476,-144.477Z" style="fill:none;stroke:#000;stroke-width:25px;"/></g><path d="M552.616,677.437c0,0 27.657,17.752 57.199,0" style="fill:none;stroke:#000;stroke-width:16.67px;"/><g><path d="M115.662,1791.13l28.385,-73.245c0,-0 204.448,54.316 205.578,52.068c1.131,-2.247 16.303,58.942 16.303,58.942c0,0 -153.901,49.278 -250.266,-37.765Z" style="fill:#28337a;"/><path d="M349.625,1772.4c0,0 -128.81,18.154 -205.578,-54.514c15.279,-14.907 43.908,-36.148 66.301,-44.719c21.274,2.981 103.372,26.671 139.277,99.233Z" style="fill:#fff;"/><path d="M419.994,1149.03c-0,-0 0.282,227.845 -0,295.164c50.34,7.924 80.58,23.65 80.741,97.51c18.062,1.544 61.891,-6.367 65.689,-8.053c0.089,-35.072 0,-382.651 0,-382.651l-146.43,-1.97Z" style="fill:#28337a;stroke:#000;stroke-width:16.67px;"/><path d="M206.829,1677.12c-0,-0 58.092,-14.476 121.548,54.682c111.427,-175.302 172.358,-190.098 172.358,-190.098c0,-0 12.016,-90.218 -80.741,-97.51c-13.385,-0.793 -78.526,-12.848 -73.56,43.52c0.109,13.151 -0,38.178 -0,38.178c-0,0 -22.923,21.533 -21.116,37.793c-5.059,4.335 -30.858,22.292 -33.748,41.064c-8.672,4.897 -25.727,10.389 -34.688,31.202c-11.563,4.914 -37.768,13.708 -50.053,41.169Z" style="fill:#ed7091;stroke:#000;stroke-width:16.67px;"/><path d="M328.377,1731.8c-0,0 97.94,-159.685 172.358,-190.098c20.234,-1.431 112.609,2.206 65.604,-40.535c-0.23,-12.095 0.125,-27.303 0.125,-27.303c-0,0 91.764,9.476 49.281,90.05c-16.294,6.38 -46.004,18.228 -77.406,30.17c-8.09,4.592 -12.385,9.044 -17.248,16.163c-4.353,7.959 -96.27,109.036 -101.097,116.494c-4.827,6.686 -4.865,17.23 -0,30.731c3.257,14.465 13.983,46.883 13.983,46.883l-69.272,24.542c-0,0 -13.13,-71.771 -36.328,-97.097Z" style="fill:#28337a;stroke:#000;stroke-width:16.67px;"/><path d="M433.977,1804.36c10.917,-6.039 65.28,-35.153 99.744,-55.781c32.426,-10.671 73.372,-32.841 98.438,-50.745c-6.154,-48.167 -14.433,-120.436 -16.414,-133.915c-16.294,6.38 -46.004,18.228 -77.406,30.17c-8.09,4.592 -12.385,9.044 -17.248,16.163c-4.353,7.959 -96.27,109.036 -101.097,116.494c-4.827,6.686 -4.865,17.23 -0,30.731c3.257,14.465 2.387,58.349 13.983,46.883Z" style="fill:#ed7091;stroke:#000;stroke-width:16.67px;"/><path d="M460.715,1606.42c-0,0 -56.807,-41.939 -135.397,-42.733c2.898,-12.986 3.54,-23.573 19.902,-34.802c13.474,0.321 83.049,6.738 134.402,47.161c14.732,9.735 3.514,41.894 -18.907,30.374Z" style="fill:#fff;stroke:#000;stroke-width:10.42px;"/><path d="M425.708,1655.85c-0,-0 -53.082,-46.564 -131.328,-53.958c3.978,-12.696 5.507,-23.191 22.754,-33.006c13.4,1.452 82.191,13.691 129.966,58.285c13.862,10.939 -0.018,42.042 -21.392,28.679Z" style="fill:#fff;stroke:#000;stroke-width:10.42px;"/><path d="M388.157,1698.64c-0,-0 -50.804,-49.04 -128.608,-60.153c4.579,-12.492 6.606,-22.903 24.301,-31.885c13.316,2.089 81.445,17.591 127.041,64.411c13.325,11.587 -2.021,41.993 -22.734,27.627Z" style="fill:#fff;stroke:#000;stroke-width:10.42px;"/><path d="M340.873,1755.73c0,0 -49.292,-60.403 -130.525,-77.235c5.96,-14.556 9.037,-26.771 28.545,-36.554c13.885,3.101 84.498,24.665 128.486,82.196c13.044,14.334 -5.904,49.565 -26.506,31.593Z" style="fill:#fff;stroke:#000;stroke-width:10.42px;"/><path d="M500.735,1541.7c0,-0 12.016,-90.218 -80.741,-97.51c-13.385,-0.793 -78.526,-12.848 -73.56,43.52c0.109,13.151 -0,38.178 -0,38.178c-0,0 -22.923,21.533 -21.116,37.793c-5.059,4.335 -30.858,22.292 -33.748,41.064c-8.672,4.897 -25.727,10.389 -34.688,31.202c-11.563,4.914 -37.768,13.708 -50.053,41.169c-14.815,6.865 -101.307,23.09 -96.745,179.419c13.233,17.577 157.354,142.281 428.715,-41.098c0.217,13.763 -0,20.303 -0,20.303l77.04,-37.876c-0,0 43.622,4.484 -0.138,-233.616c11.162,-18.411 32.857,-73.626 -49.237,-93.952c-0.003,18.747 -0,28.614 -0,28.614c-0,-0 33.944,19.316 -0,34.709c-20.131,3.946 -65.729,8.081 -65.729,8.081Z" style="fill:none;stroke:#000;stroke-width:16.67px;"/><path d="M114.659,1789.33c-2.077,26.841 -4.661,40.649 -4.575,67.207c13.233,17.577 157.354,142.281 428.715,-41.098c0.217,13.763 -0,20.303 -0,20.303l77.04,-37.876c-0,0 25.09,2.579 18.125,-100.037c0,0 -57.13,37.311 -96.597,48.76c-11.285,3.523 -100.153,66.886 -171.159,82.308c-20.367,5.515 -148.066,46.907 -251.549,-39.567Z" style="fill:#fff;stroke:#000;stroke-width:16.67px;"/><path d="M626.973,1633.86c-0,-0 -79.37,29.204 -61.77,100.98c27.862,-12.177 67.321,-37.011 67.321,-37.011l-5.551,-63.969Z" style="fill:#28337a;stroke:#000;stroke-width:16.67px;"/></g><g><path d="M1204.11,1791.13l-28.385,-73.245c0,-0 -204.448,54.316 -205.578,52.068c-1.13,-2.247 -16.303,58.942 -16.303,58.942c-0,0 153.901,49.278 250.266,-37.765Z" style="fill:#28337a;"/><path d="M970.15,1772.4c-0,0 128.81,18.154 205.578,-54.514c-15.279,-14.907 -43.908,-36.148 -66.3,-44.719c-21.275,2.981 -103.373,26.671 -139.278,99.233Z" style="fill:#fff;"/><path d="M899.782,1149.03c-0,-0 -0.282,227.845 -0,295.164c-50.341,7.924 -80.58,23.65 -80.742,97.51c-18.061,1.544 -61.89,-6.367 -65.689,-8.053c-0.089,-35.072 0,-382.651 0,-382.651l146.431,-1.97Z" style="fill:#28337a;stroke:#000;stroke-width:16.67px;"/><path d="M1112.95,1677.12c-0,-0 -58.092,-14.476 -121.548,54.682c-111.428,-175.302 -172.359,-190.098 -172.359,-190.098c0,-0 -12.016,-90.218 80.742,-97.51c13.384,-0.793 78.526,-12.848 73.56,43.52c-0.11,13.151 -0,38.178 -0,38.178c-0,0 22.922,21.533 21.115,37.793c5.059,4.335 30.858,22.292 33.749,41.064c8.672,4.897 25.727,10.389 34.688,31.202c11.562,4.914 37.768,13.708 50.053,41.169Z" style="fill:#ed7091;stroke:#000;stroke-width:16.67px;"/><path d="M991.399,1731.8c-0,0 -97.941,-159.685 -172.359,-190.098c-20.233,-1.431 -112.609,2.206 -65.604,-40.535c0.23,-12.095 -0.124,-27.303 -0.124,-27.303c-0,0 -91.765,9.476 -49.282,90.05c16.294,6.38 46.004,18.228 77.406,30.17c8.091,4.592 12.385,9.044 17.249,16.163c4.353,7.959 96.27,109.036 101.097,116.494c4.827,6.686 4.865,17.23 -0,30.731c-3.258,14.465 -13.984,46.883 -13.984,46.883l69.273,24.542c-0,0 13.129,-71.771 36.328,-97.097Z" style="fill:#28337a;stroke:#000;stroke-width:16.67px;"/><path d="M885.798,1804.36c-10.917,-6.039 -65.279,-35.153 -99.743,-55.781c-32.426,-10.671 -73.373,-32.841 -98.438,-50.745c6.154,-48.167 14.432,-120.436 16.413,-133.915c16.294,6.38 46.004,18.228 77.406,30.17c8.091,4.592 12.385,9.044 17.249,16.163c4.353,7.959 96.27,109.036 101.097,116.494c4.827,6.686 4.865,17.23 -0,30.731c-3.258,14.465 -2.387,58.349 -13.984,46.883Z" style="fill:#ed7091;stroke:#000;stroke-width:16.67px;"/><path d="M859.061,1606.42c-0,0 56.806,-41.939 135.396,-42.733c-2.898,-12.986 -3.539,-23.573 -19.901,-34.802c-13.474,0.321 -83.05,6.738 -134.402,47.161c-14.732,9.735 -3.515,41.894 18.907,30.374Z" style="fill:#fff;stroke:#000;stroke-width:10.42px;"/><path d="M894.068,1655.85c-0,-0 53.082,-46.564 131.328,-53.958c-3.979,-12.696 -5.508,-23.191 -22.755,-33.006c-13.4,1.452 -82.19,13.691 -129.965,58.285c-13.862,10.939 0.018,42.042 21.392,28.679Z" style="fill:#fff;stroke:#000;stroke-width:10.42px;"/><path d="M931.619,1698.64c-0,-0 50.803,-49.04 128.608,-60.153c-4.579,-12.492 -6.606,-22.903 -24.302,-31.885c-13.315,2.089 -81.444,17.591 -127.04,64.411c-13.325,11.587 2.021,41.993 22.734,27.627Z" style="fill:#fff;stroke:#000;stroke-width:10.42px;"/><path d="M978.902,1755.73c0,0 49.293,-60.403 130.526,-77.235c-5.961,-14.556 -9.037,-26.771 -28.545,-36.554c-13.886,3.101 -84.499,24.665 -128.487,82.196c-13.043,14.334 5.904,49.565 26.506,31.593Z" style="fill:#fff;stroke:#000;stroke-width:10.42px;"/><path d="M819.04,1541.7c0,-0 -12.016,-90.218 80.742,-97.51c13.384,-0.793 78.526,-12.848 73.56,43.52c-0.11,13.151 -0,38.178 -0,38.178c-0,0 22.922,21.533 21.115,37.793c5.059,4.335 30.858,22.292 33.749,41.064c8.672,4.897 25.727,10.389 34.688,31.202c11.562,4.914 37.768,13.708 50.053,41.169c14.815,6.865 101.306,23.09 96.745,179.419c-13.234,17.577 -157.355,142.281 -428.715,-41.098c-0.218,13.763 -0,20.303 -0,20.303l-77.04,-37.876c-0,0 -43.623,4.484 0.138,-233.616c-11.162,-18.411 -32.857,-73.626 49.237,-93.952c0.003,18.747 -0,28.614 -0,28.614c-0,-0 -33.944,19.316 -0,34.709c20.131,3.946 65.728,8.081 65.728,8.081Z" style="fill:none;stroke:#000;stroke-width:16.67px;"/><path d="M1205.12,1789.33c2.076,26.841 4.66,40.649 4.575,67.207c-13.234,17.577 -157.355,142.281 -428.715,-41.098c-0.218,13.763 -0,20.303 -0,20.303l-77.04,-37.876c-0,0 -25.091,2.579 -18.126,-100.037c0,0 57.13,37.311 96.597,48.76c11.285,3.523 100.153,66.886 171.16,82.308c20.366,5.515 148.065,46.907 251.549,-39.567Z" style="fill:#fff;stroke:#000;stroke-width:16.67px;"/><path d="M692.803,1633.86c-0,-0 79.37,29.204 61.769,100.98c-27.861,-12.177 -67.321,-37.011 -67.321,-37.011l5.552,-63.969Z" style="fill:#28337a;stroke:#000;stroke-width:16.67px;"/></g><path d="M393.918,738.003c-0,-0 4.929,164.311 188.137,175.813c56.688,-0.821 189.78,-26.29 209.498,-179.1c-53.402,27.112 -213.606,128.985 -397.635,3.287Z" style="fill:#fff;stroke:#000;stroke-width:16.67px;"/><path d="M740.436,721.278c0,-0 58.433,-3.448 77.79,31.576c-2.676,-13.716 -24.375,-52.608 -77.79,-31.576Z" style="fill:none;stroke:#000;stroke-width:16.67px;"/><path d="M366.363,743.76c0,-0 33.506,-33.702 69.035,-16.636c-10.906,-9.286 -50.483,-28.128 -69.035,16.636Z" style="fill:none;stroke:#000;stroke-width:16.67px;"/><g><ellipse cx="774.959" cy="535.292" rx="116.412" ry="134.461" style="fill:#fff;stroke:#000;stroke-width:16.67px;"/><ellipse cx="788.767" cy="527.086" rx="94.582" ry="106.469" style="fill:#28337a;"/><ellipse cx="798.687" cy="510.955" rx="78.696" ry="90.337"/><circle cx="772.868" cy="468.202" r="36.17" style="fill:#fff;"/></g><g><ellipse cx="408.414" cy="537.689" rx="116.412" ry="134.461" style="fill:#fff;stroke:#000;stroke-width:16.67px;"/><ellipse cx="422.222" cy="529.483" rx="94.582" ry="106.469" style="fill:#28337a;"/><ellipse cx="432.142" cy="513.352" rx="78.696" ry="90.337"/><circle cx="406.323" cy="470.599" r="36.17" style="fill:#fff;"/></g><path d="M341.768,366.631c-0,-0 66.948,-30.673 134.104,-31.756c12.713,-7.132 20.958,-12.162 20.047,-35.391c-4.597,-17.513 -19.346,-27.5 -34.279,-26.471c-12.721,0.846 -92.195,8.893 -134,63.758c-3.459,5.899 -6.791,8.473 -3.086,19.347c2.014,3.947 5.269,12.326 17.214,10.513Z"/><path d="M851.198,366.703c-0,0 -66.948,-30.673 -134.104,-31.755c-12.713,-7.133 -20.959,-12.162 -20.048,-35.391c4.598,-17.514 19.347,-27.501 34.28,-26.471c12.72,0.845 92.195,8.893 134,63.757c3.459,5.9 6.79,8.474 3.085,19.348c-2.013,3.947 -5.269,12.326 -17.213,10.512Z"/></g><defs><linearGradient id="_Linear1" x1="0" y1="0" x2="1" y2="0" gradientUnits="userSpaceOnUse" gradientTransform="matrix(5.77533e-14,-943.182,956.733,5.8583e-14,737.82,1148.89)"><stop offset="0" style="stop-color:#ed6d91;stop-opacity:1"/><stop offset="1" style="stop-color:#ed7d91;stop-opacity:1"/></linearGradient><linearGradient id="_Linear2" x1="0" y1="0" x2="1" y2="0" gradientUnits="userSpaceOnUse" gradientTransform="matrix(5.82669e-14,-951.57,956.733,5.8583e-14,664.218,1153.22)"><stop offset="0" style="stop-color:#ed6d91;stop-opacity:1"/><stop offset="1" style="stop-color:#ed7d91;stop-opacity:1"/></linearGradient><linearGradient id="_Linear3" x1="0" y1="0" x2="1" y2="0" gradientUnits="userSpaceOnUse" gradientTransform="matrix(5.77535e-14,-943.187,956.733,5.8583e-14,599.726,1149.03)"><stop offset="0" style="stop-color:#ed6d91;stop-opacity:1"/><stop offset="1" style="stop-color:#ed7d91;stop-opacity:1"/></linearGradient></defs></svg>