<?xml version="1.0" encoding="UTF-8" standalone="no"?><!DOCTYPE svg PUBLIC "-//W3C//DTD SVG 1.1//EN" "http://www.w3.org/Graphics/SVG/1.1/DTD/svg11.dtd"><svg width="100%" height="100%" viewBox="0 0 2250 2250" version="1.1" xmlns="http://www.w3.org/2000/svg" xmlns:xlink="http://www.w3.org/1999/xlink" xml:space="preserve" xmlns:serif="http://www.serif.com/" style="fill-rule:evenodd;clip-rule:evenodd;stroke-linecap:round;stroke-linejoin:round;stroke-miterlimit:1.5;"><rect id="Artboard1" x="0" y="0" width="2250" height="2250" style="fill:none;"/><clipPath id="_clip1"><rect id="Artboard11" serif:id="Artboard1" x="0" y="0" width="2250" height="2250"/></clipPath><g clip-path="url(#_clip1)"><path d="M1466.75,510.057l173.377,0c99.875,0 180.961,81.086 180.961,180.961l-0,819.444c-0,99.875 -81.086,180.96 -180.961,180.96l-173.377,0c3.081,-214.148 1.022,-928.094 0,-1181.37Z" style="fill:url(#_Linear2);stroke:#000;stroke-width:25px;"/><path d="M1479.13,504.973l67.203,0c100.763,0 182.57,81.807 182.57,182.57l0,826.732c0,100.763 -81.807,182.57 -182.57,182.57l-67.203,-0" style="fill:url(#_Linear3);stroke:#000;stroke-width:16.67px;"/><path d="M454.186,1051.36c-0,0 -193.37,104.019 -134.987,456.777c18.448,-28.845 51.355,-99.001 135.248,-108.694c2.106,-38.774 -0.261,-348.083 -0.261,-348.083Z" style="fill:#28337a;stroke:#000;stroke-width:16.67px;"/><path d="M1907.08,1519.34c-0,0 -64.413,-51.214 -176.949,-14.391c-18.599,8.424 -56.44,31.97 -6.266,54.094c-21.729,11.457 -129.596,92.018 -147.498,209.57c-4.938,26.808 19.402,112.158 105.161,21.621c5.921,-23.869 13.74,-72.019 14.975,-101.649c-3.704,63.788 -8.195,149.631 -58.593,229.382c-12.218,18.129 -6.133,130.657 111.056,23.487c10.689,-20.764 31.09,-59.698 45.338,-100.18c-5.178,16.453 -35.262,82.095 -45.338,100.18c28.104,-0.67 65.613,-14.066 66.953,-15.406c10.717,-20.094 49.457,-77.028 45.158,-77.028c-4.299,-0 -45.158,77.028 -45.158,77.028c-0,0 211.041,-2.464 86.576,-346.805c9.498,-14.793 43.802,-29.417 4.585,-59.903Z" style="fill:#fff;stroke:#000;stroke-width:16.67px;"/><path d="M1729.81,1503.02c0,-0 101.618,-33.69 177.276,16.318c-0,-45.676 -11.602,-353.914 -171.076,-513.388c-17.616,-15.663 -60.455,4.591 -53.776,48.213c7.418,41.723 74.696,292.974 47.576,448.857Z" style="fill:#28337a;stroke:#000;stroke-width:16.67px;"/><path d="M319.199,1508.13c-0,-0 41.707,-98.585 135.248,-108.694c-1.412,49.053 -4.663,108.694 -4.663,108.694c-0,-0 58.05,181.45 219.909,183.463c6.428,7.856 14.42,35.708 -22.042,47.862c-38.332,10.284 -95.362,26.646 -159.872,-37.864c15.894,14.491 75.484,73.859 159.872,37.864c-8.169,20.101 -37.151,45.812 -68.004,49.551c-24.308,0 -70.301,9.817 -144.069,-61.237c13.647,11.686 63.198,69.184 144.069,61.237c-8.882,10.752 -217.259,112.201 -260.448,-280.876Z" style="fill:#fff;stroke:#000;stroke-width:16.67px;"/><path d="M827.355,425.548c2.017,-114.53 43.831,-160.163 141.744,-161.339c121.469,-2.409 215.444,-1.138 325.141,0c71.792,1.927 120.336,53.634 119.671,157.221c-44.85,-0.824 -80.617,-0.067 -106.128,-0c-0.037,-29.2 -13.014,-45.779 -45.643,-45.509c-39.56,0.269 -242.323,-0.282 -290.766,-0c-21.175,1.225 -33.502,20.725 -33.271,49.233c-26.333,0.288 -110.741,0 -110.741,0" style="fill:#28337a;stroke:#000;stroke-width:16.67px;"/><path d="M1413.91,421.474l-0,89.329l-104.026,0l-2.102,-89.329" style="fill:#fff;stroke:#000;stroke-width:16.67px;"/><path d="M938.103,425.548l0,89.801l-108.555,0l-2.193,-89.801" style="fill:#fff;stroke:#000;stroke-width:16.67px;"/><path d="M630.745,510.227l836.415,0c99.875,0 180.961,81.086 180.961,180.962l0,819.447c0,99.876 -81.086,180.962 -180.961,180.962l-836.415,-0c-99.875,-0 -180.961,-81.086 -180.961,-180.962l-0,-819.447c-0,-99.876 81.086,-180.962 180.961,-180.962Z" style="fill:url(#_Linear4);stroke:#000;stroke-width:25px;"/><g><path d="M1648.12,691.189c-207.833,13.192 -180.961,-180.962 -180.961,-180.962c99.875,0 178.342,71.56 180.961,180.962Z" style="fill:#28337a;stroke:#000;stroke-width:12.5px;stroke-dasharray:12.5,25,6.25,0,0,0;"/><path d="M1648.12,1510.64c-207.833,-13.192 -180.961,180.962 -180.961,180.962c99.875,-0 178.342,-71.56 180.961,-180.962Z" style="fill:#28337a;stroke:#000;stroke-width:12.5px;stroke-dasharray:12.5,25,6.25,0,0,0;"/><path d="M449.784,1510.64c207.833,-13.192 180.961,180.962 180.961,180.962c-99.875,-0 -178.342,-71.56 -180.961,-180.962Z" style="fill:#28337a;stroke:#000;stroke-width:12.5px;stroke-dasharray:12.5,25,6.25,0,0,0;"/><path d="M449.784,691.189c207.833,13.192 180.961,-180.962 180.961,-180.962c-99.875,0 -178.342,71.56 -180.961,180.962Z" style="fill:#28337a;stroke:#000;stroke-width:12.5px;stroke-dasharray:12.5,25,6.25,0,0,0;"/><path d="M630.745,510.227l836.415,0c99.875,0 180.961,81.086 180.961,180.962l0,819.447c0,99.876 -81.086,180.962 -180.961,180.962l-836.415,-0c-99.875,-0 -180.961,-81.086 -180.961,-180.962l-0,-819.447c-0,-99.876 81.086,-180.962 180.961,-180.962Z" style="fill:none;stroke:#000;stroke-width:25px;"/></g><path d="M989.946,1100.91c0,-0 34.641,22.234 71.644,-0" style="fill:none;stroke:#000;stroke-width:16.67px;"/><g><path d="M823.832,1691.6c-0,-0 0.353,285.383 -0,369.702c63.053,9.926 100.929,29.622 101.131,122.134c22.623,1.934 77.52,-7.974 82.278,-10.086c0.111,-43.929 -0,-479.282 -0,-479.282l-183.409,-2.468Z" style="fill:#28337a;stroke:#000;stroke-width:16.67px;"/><path d="M556.836,2353.05c0,0 72.762,-18.132 152.243,68.491c139.567,-219.571 215.884,-238.104 215.884,-238.104c0,0 15.051,-113 -101.131,-122.134c-16.765,-0.994 -98.356,-16.092 -92.136,54.51c0.137,16.472 0,47.819 0,47.819c0,0 -28.711,26.971 -26.448,47.337c-6.336,5.431 -38.65,27.922 -42.271,51.434c-10.862,6.134 -32.224,13.013 -43.447,39.081c-14.483,6.155 -47.306,17.17 -62.694,51.566Z" style="fill:#ed7091;stroke:#000;stroke-width:16.67px;"/><path d="M709.079,2421.54c-0,0 122.674,-200.01 215.884,-238.104c25.343,-1.792 141.047,2.764 82.172,-50.771c-0.289,-15.149 0.155,-34.197 0.155,-34.197c0,-0 114.938,11.869 61.727,112.79c-20.409,7.991 -57.622,22.831 -96.953,37.789c-10.134,5.751 -15.513,11.328 -21.605,20.244c-5.452,9.969 -120.581,136.571 -126.627,145.912c-6.046,8.375 -6.093,21.581 -0,38.492c4.08,18.118 17.515,58.722 17.515,58.722l-86.766,30.74c0,0 -16.445,-89.895 -45.502,-121.617Z" style="fill:#28337a;stroke:#000;stroke-width:16.67px;"/><path d="M841.347,2512.41c13.674,-7.564 81.765,-44.03 124.931,-69.867c40.615,-13.366 91.902,-41.135 123.298,-63.559c-7.709,-60.332 -18.078,-150.85 -20.559,-167.733c-20.409,7.991 -57.622,22.831 -96.953,37.789c-10.134,5.751 -15.513,11.328 -21.605,20.244c-5.452,9.969 -120.581,136.571 -126.627,145.912c-6.046,8.375 -6.093,21.581 -0,38.492c4.08,18.118 2.99,73.084 17.515,58.722Z" style="fill:#ed7091;stroke:#000;stroke-width:16.67px;"/><path d="M874.837,2264.49c-0,-0 -71.152,-52.531 -169.589,-53.525c3.63,-16.265 4.433,-29.526 24.927,-43.59c16.877,0.402 104.023,8.439 168.343,59.07c18.452,12.194 4.402,52.474 -23.681,38.045Z" style="fill:#fff;stroke:#000;stroke-width:10.42px;"/><path d="M830.989,2326.4c0,-0 -66.487,-58.322 -164.492,-67.583c4.983,-15.902 6.898,-29.049 28.501,-41.342c16.783,1.819 102.945,17.148 162.785,73.004c17.363,13.701 -0.022,52.658 -26.794,35.921Z" style="fill:#fff;stroke:#000;stroke-width:10.42px;"/><path d="M924.963,2183.43c0,0 15.051,-113 -101.131,-122.134c-16.765,-0.994 -98.356,-16.092 -92.136,54.51c0.137,16.472 0,47.819 0,47.819c0,0 -28.711,26.971 -26.448,47.337c-6.336,5.431 -38.65,27.922 -42.271,51.434c-10.862,6.134 -32.224,13.013 -43.447,39.081c-14.483,6.155 -47.306,17.17 -62.694,51.566c-18.556,8.599 -126.889,28.921 -121.176,224.728c16.576,22.016 197.091,178.211 536.979,-51.477c0.272,17.239 -0,25.431 -0,25.431l96.495,-47.441c0,-0 54.639,5.616 -0.173,-292.612c13.981,-23.06 41.154,-92.219 -61.671,-117.677c-0.003,23.481 0,35.839 0,35.839c0,0 42.516,24.195 0,43.474c-25.214,4.944 -82.327,10.122 -82.327,10.122Z" style="fill:none;stroke:#000;stroke-width:16.67px;"/></g><g><path d="M1424.78,1691.6c-0,-0 -0.354,285.383 -0,369.702c-63.054,9.926 -100.929,29.622 -101.131,122.134c-22.623,1.934 -77.52,-7.974 -82.278,-10.086c-0.111,-43.929 0,-479.282 0,-479.282l183.409,-2.468Z" style="fill:#28337a;stroke:#000;stroke-width:16.67px;"/><path d="M1691.78,2353.05c-0,0 -72.762,-18.132 -152.243,68.491c-139.567,-219.571 -215.884,-238.104 -215.884,-238.104c-0,0 -15.051,-113 101.131,-122.134c16.764,-0.994 98.356,-16.092 92.136,54.51c-0.138,16.472 -0,47.819 -0,47.819c-0,0 28.711,26.971 26.448,47.337c6.336,5.431 38.65,27.922 42.271,51.434c10.861,6.134 32.223,13.013 43.447,39.081c14.483,6.155 47.306,17.17 62.694,51.566Z" style="fill:#ed7091;stroke:#000;stroke-width:16.67px;"/><path d="M1539.54,2421.54c-0,0 -122.674,-200.01 -215.884,-238.104c-25.344,-1.792 -141.047,2.764 -82.172,-50.771c0.289,-15.149 -0.156,-34.197 -0.156,-34.197c0,-0 -114.937,11.869 -61.726,112.79c20.409,7.991 57.621,22.831 96.953,37.789c10.133,5.751 15.513,11.328 21.604,20.244c5.453,9.969 120.582,136.571 126.628,145.912c6.046,8.375 6.093,21.581 -0,38.492c-4.08,18.118 -17.515,58.722 -17.515,58.722l86.765,30.74c0,0 16.445,-89.895 45.503,-121.617Z" style="fill:#28337a;stroke:#000;stroke-width:16.67px;"/><path d="M1407.27,2512.41c-13.674,-7.564 -81.765,-44.03 -124.932,-69.867c-40.614,-13.366 -91.901,-41.135 -123.297,-63.559c7.708,-60.332 18.077,-150.85 20.559,-167.733c20.409,7.991 57.621,22.831 96.953,37.789c10.133,5.751 15.513,11.328 21.604,20.244c5.453,9.969 120.582,136.571 126.628,145.912c6.046,8.375 6.093,21.581 -0,38.492c-4.08,18.118 -2.99,73.084 -17.515,58.722Z" style="fill:#ed7091;stroke:#000;stroke-width:16.67px;"/><path d="M1373.78,2264.49c0,-0 71.152,-52.531 169.589,-53.525c-3.63,-16.265 -4.434,-29.526 -24.927,-43.59c-16.878,0.402 -104.023,8.439 -168.344,59.07c-18.452,12.194 -4.401,52.474 23.682,38.045Z" style="fill:#fff;stroke:#000;stroke-width:10.42px;"/><path d="M1417.62,2326.4c-0,-0 66.487,-58.322 164.492,-67.583c-4.983,-15.902 -6.898,-29.049 -28.501,-41.342c-16.784,1.819 -102.946,17.148 -162.786,73.004c-17.362,13.701 0.023,52.658 26.795,35.921Z" style="fill:#fff;stroke:#000;stroke-width:10.42px;"/><path d="M1323.65,2183.43c-0,0 -15.051,-113 101.131,-122.134c16.764,-0.994 98.356,-16.092 92.136,54.51c-0.138,16.472 -0,47.819 -0,47.819c-0,0 28.711,26.971 26.448,47.337c6.336,5.431 38.65,27.922 42.271,51.434c10.861,6.134 32.223,13.013 43.447,39.081c14.483,6.155 47.306,17.17 62.694,51.566c18.555,8.599 126.889,28.921 121.175,224.728c-16.575,22.016 -197.091,178.211 -536.978,-51.477c-0.273,17.239 -0,25.431 -0,25.431l-96.496,-47.441c0,-0 -54.638,5.616 0.173,-292.612c-13.98,-23.06 -41.154,-92.219 61.671,-117.677c0.004,23.481 0,35.839 0,35.839c0,0 -42.516,24.195 0,43.474c25.215,4.944 82.328,10.122 82.328,10.122Z" style="fill:none;stroke:#000;stroke-width:16.67px;"/></g><path d="M791.171,1176.77c0,0 6.175,205.806 235.648,220.212c71.003,-1.029 237.705,-32.929 262.402,-224.328c-66.887,33.958 -267.547,161.557 -498.05,4.116Z" style="fill:#fff;stroke:#000;stroke-width:16.67px;"/><path d="M1225.2,1155.82c0,-0 73.189,-4.319 97.435,39.55c-3.352,-17.18 -30.532,-65.893 -97.435,-39.55Z" style="fill:none;stroke:#000;stroke-width:16.67px;"/><path d="M756.659,1183.98c-0,-0 41.967,-42.212 86.467,-20.837c-13.659,-11.631 -63.232,-35.23 -86.467,20.837Z" style="fill:none;stroke:#000;stroke-width:16.67px;"/><g><ellipse cx="1268.44" cy="922.87" rx="145.81" ry="168.416" style="fill:#fff;stroke:#000;stroke-width:16.67px;"/><ellipse cx="1285.73" cy="912.593" rx="118.467" ry="133.356" style="fill:#28337a;"/><ellipse cx="1298.16" cy="892.388" rx="98.569" ry="113.15"/><circle cx="1265.82" cy="838.838" r="45.304" style="fill:#fff;"/></g><g><ellipse cx="809.328" cy="925.873" rx="145.81" ry="168.416" style="fill:#fff;stroke:#000;stroke-width:16.67px;"/><ellipse cx="826.623" cy="915.595" rx="118.467" ry="133.356" style="fill:#28337a;"/><ellipse cx="839.048" cy="895.39" rx="98.569" ry="113.15"/><circle cx="806.71" cy="841.84" r="45.304" style="fill:#fff;"/></g><path d="M725.852,711.617c-0,0 83.854,-38.418 167.969,-39.775c15.924,-8.933 26.251,-15.232 25.11,-44.327c-5.759,-21.937 -24.232,-34.446 -42.936,-33.156c-15.933,1.059 -115.477,11.138 -167.839,79.858c-4.333,7.389 -8.505,10.613 -3.865,24.233c2.522,4.944 6.6,15.439 21.561,13.167Z"/><path d="M1363.93,711.708c-0,0 -83.855,-38.418 -167.97,-39.775c-15.923,-8.933 -26.251,-15.233 -25.11,-44.328c5.759,-21.936 24.232,-34.445 42.936,-33.155c15.933,1.059 115.478,11.138 167.84,79.858c4.332,7.389 8.505,10.613 3.864,24.233c-2.522,4.943 -6.599,15.439 -21.56,13.167Z"/></g><defs><linearGradient id="_Linear2" x1="0" y1="0" x2="1" y2="0" gradientUnits="userSpaceOnUse" gradientTransform="matrix(7.23378e-14,-1181.37,1198.34,7.3377e-14,1221.92,1691.42)"><stop offset="0" style="stop-color:#ed6d91;stop-opacity:1"/><stop offset="1" style="stop-color:#ed7d91;stop-opacity:1"/></linearGradient><linearGradient id="_Linear3" x1="0" y1="0" x2="1" y2="0" gradientUnits="userSpaceOnUse" gradientTransform="matrix(7.29811e-14,-1191.87,1198.34,7.3377e-14,1129.73,1696.84)"><stop offset="0" style="stop-color:#ed6d91;stop-opacity:1"/><stop offset="1" style="stop-color:#ed7d91;stop-opacity:1"/></linearGradient><linearGradient id="_Linear4" x1="0" y1="0" x2="1" y2="0" gradientUnits="userSpaceOnUse" gradientTransform="matrix(7.23381e-14,-1181.37,1198.34,7.3377e-14,1048.95,1691.6)"><stop offset="0" style="stop-color:#ed6d91;stop-opacity:1"/><stop offset="1" style="stop-color:#ed7d91;stop-opacity:1"/></linearGradient></defs></svg>